<svg height="512" viewBox="0 0 64 64" width="512" xmlns="http://www.w3.org/2000/svg"><g id="Virus-Computer-Malware-Bug-Security"><path d="m54 9v22h-44v-22a2.006 2.006 0 0 1 2-2h40a2.006 2.006 0 0 1 2 2z" fill="#5aaae7"/><path d="m55 57v3a1 1 0 0 1 -1 1h-44a1 1 0 0 1 -1-1v-3z" fill="#acabb1"/><path d="m55 57h-46l6-6h34z" fill="#c6c5ca"/><path d="m54 31v4a2.006 2.006 0 0 1 -2 2h-40a2.006 2.006 0 0 1 -2-2v-4z" fill="#c6c5ca"/><path d="m42 43v4h-20v-4h5 10z" fill="#acabb1"/><path d="m27 37h10v6h-10z" fill="#c6c5ca"/><g fill="#acabb1"><path d="m27 37h10v2h-10z"/><path d="m16 53h2v2h-2z"/><path d="m20 53h2v2h-2z"/><path d="m42 53h2v2h-2z"/><path d="m24 53h16v2h-16z"/><path d="m46 53h2v2h-2z"/></g><path d="m47 33h2v2h-2z" fill="#898890"/><path d="m19 51h-2v-3a1 1 0 0 0 -1-1h-6a3 3 0 0 1 0-6h6a1 1 0 0 0 1-1v-3h2v3a3 3 0 0 1 -3 3h-6a1 1 0 0 0 0 2h6a3 3 0 0 1 3 3z" fill="#d8d7da"/><path d="m34 33a13.883 13.883 0 0 0 7.2-2h-14.4a13.857 13.857 0 0 0 7.2 2z" fill="#acabb1"/><path d="m48 19a13.931 13.931 0 0 0 -4.21-10 14.649 14.649 0 0 0 -2.57-2h-14.44a14.649 14.649 0 0 0 -2.57 2 13.99 13.99 0 0 0 2.59 22h14.4a13.607 13.607 0 0 0 2.21-1.64 13.946 13.946 0 0 0 4.59-10.36z" fill="#3d9ae2"/><path d="m46 17a14.013 14.013 0 1 1 -4.21-10 13.946 13.946 0 0 1 4.21 10z" fill="#ffd422"/><path d="m38 15h-4v-2h4a1 1 0 0 0 1-1v-2h2v2a3 3 0 0 1 -3 3z" fill="#ff9811"/><path d="m41 26h-2v-2a1 1 0 0 0 -1-1h-4v-2h4a3 3 0 0 1 3 3z" fill="#ff9811"/><path d="m34 17h7v2h-7z" fill="#ff9811"/><path d="m30 15h-4a3 3 0 0 1 -3-3v-2h2v2a1 1 0 0 0 1 1h4z" fill="#ff9811"/><path d="m25 26h-2v-2a3 3 0 0 1 3-3h4v2h-4a1 1 0 0 0 -1 1z" fill="#ff9811"/><path d="m23 17h7v2h-7z" fill="#ff9811"/><path d="m32 7.382a3.975 3.975 0 0 0 -3-1.382v2a2 2 0 0 1 2 2v1h2v-1a2 2 0 0 1 2-2v-2a3.975 3.975 0 0 0 -3 1.382z" fill="#ff5023"/><path d="m36 18v2a4 4 0 0 1 -4 4v-6l4-4z" fill="#ff6243"/><path d="m36 14-4 4-4-4h2 4z" fill="#e6e7e8"/><path d="m34 12v2h-4v-2a2.015 2.015 0 0 1 2-2 2.006 2.006 0 0 1 2 2z" fill="#ee8700"/><path d="m32 18v6a4.025 4.025 0 0 1 -2.83-1.17 4.178 4.178 0 0 1 -.99-1.64 3.944 3.944 0 0 1 -.18-1.19v-6z" fill="#ff5023"/></g></svg>