<svg height="512" viewBox="0 0 64 64" width="512" xmlns="http://www.w3.org/2000/svg"><g id="Virus-Computer-Malware-Bug-Security"><path d="m55 57v3a1 1 0 0 1 -1 1h-44a1 1 0 0 1 -1-1v-3z" fill="#bddbff"/><path d="m54 31v4a2.006 2.006 0 0 1 -2 2h-40a2.006 2.006 0 0 1 -2-2v-4z" fill="#bddbff"/><path d="m42 43v4h-20v-4h5 10z" fill="#bddbff"/><path d="m27 37h10v6h-10z" fill="#bddbff"/><path d="m41.79 7a13.984 13.984 0 1 0 4.21 10 13.971 13.971 0 0 0 -4.21-10zm-9.79 17a4.025 4.025 0 0 1 -2.83-1.17 4.178 4.178 0 0 1 -.99-1.64 3.944 3.944 0 0 1 -.18-1.19v-6h2v-2a2.015 2.015 0 0 1 2-2 2.006 2.006 0 0 1 2 2v2h2v6a4 4 0 0 1 -4 4z" fill="#bddbff"/><g fill="#3d9ae2"><path d="m55.707 56.293-6-6a1 1 0 0 0 -.707-.293h-30v-2a3 3 0 0 0 -3-3h-6a1 1 0 0 1 0-2h6a3 3 0 0 0 3-3v-2h7v4h-4a1 1 0 0 0 -1 1v4a1 1 0 0 0 1 1h20a1 1 0 0 0 1-1v-4a1 1 0 0 0 -1-1h-4v-4h14a3 3 0 0 0 3-3v-26a3 3 0 0 0 -3-3h-6v2h6a1 1 0 0 1 1 1v21h-13v2h13v3a1 1 0 0 1 -1 1h-40a1 1 0 0 1 -1-1v-3h13v-2h-13v-21a1 1 0 0 1 1-1h6v-2h-6a3 3 0 0 0 -3 3v26a3 3 0 0 0 3 3h5v2a1 1 0 0 1 -1 1h-6a3 3 0 0 0 0 6h6a1 1 0 0 1 1 1v2h-2a1 1 0 0 0 -.707.293l-6 6a1 1 0 0 0 -.293.707v3a2 2 0 0 0 2 2h44a2 2 0 0 0 2-2v-3a1 1 0 0 0 -.293-.707zm-14.707-10.293h-18v-2h18zm-5-4h-8v-4h8zm-20.586 10h33.172l4 4h-41.172zm-5.414 8v-2h44v2z"/><path d="m16 53h2v2h-2z"/><path d="m20 53h2v2h-2z"/><path d="m42 53h2v2h-2z"/><path d="m24 53h16v2h-16z"/><path d="m46 53h2v2h-2z"/><path d="m47 33h2v2h-2z"/><path d="m32 2a15 15 0 1 0 15 15 15.018 15.018 0 0 0 -15-15zm0 28a13 13 0 1 1 13-13 13.012 13.012 0 0 1 -13 13z"/><path d="m38 15a3.009 3.009 0 0 0 3-3v-2h-2v2a1 1 0 0 1 -1 1h-3v-1a3 3 0 0 0 -1.85-2.77 2.02 2.02 0 0 1 1.85-1.23v-2a3.967 3.967 0 0 0 -3 1.38 3.967 3.967 0 0 0 -3-1.38v2a2.02 2.02 0 0 1 1.85 1.23 3 3 0 0 0 -1.85 2.77v1h-3a1 1 0 0 1 -1-1v-2h-2v2a3.009 3.009 0 0 0 3 3h1v2h-4v2h4v1a5.468 5.468 0 0 0 .1 1h-1.1a3.009 3.009 0 0 0 -3 3v2h2v-2a1 1 0 0 1 1-1h2v-.03a4.956 4.956 0 0 0 8 0v.03h2a1 1 0 0 1 1 1v2h2v-2a3.009 3.009 0 0 0 -3-3h-1.1a5.468 5.468 0 0 0 .1-1v-1h4v-2h-4v-2zm-7-3a1 1 0 0 1 2 0v1h-2zm0 10.82a3.01 3.01 0 0 1 -2-2.82v-3.59l2 2zm-.59-7.82h3.18l-1.59 1.59zm4.59 5a3.01 3.01 0 0 1 -2 2.82v-4.41l2-2z"/></g></g></svg>