<svg height="512" viewBox="0 0 64 64" width="512" xmlns="http://www.w3.org/2000/svg"><g id="Virus-Smartphone-Bug-Malware-Security"><path d="m51 8v48a5 5 0 0 1 -5 5h-28a5 5 0 0 1 -5-5v-48a5 5 0 0 1 5-5h28a5 5 0 0 1 5 5z" fill="#5aaae7"/><path d="m51 19.51v36.49a5 5 0 0 1 -5 5h-28a5 5 0 0 1 -3.01-1.01c7.61-4.31 24.5-16.04 36.01-40.48z" fill="#479fe3"/><path d="m34 53h-4a2 2 0 0 0 0 4h4a2 2 0 0 0 0-4z" fill="#e6e7e8"/><g fill="#3d9ae2"><path d="m40 24v2a1 1 0 0 1 -1 1h-6v2h6a3 3 0 0 0 3-3v-2z"/><path d="m39 35h-4v2h4a1 1 0 0 1 1 1v3h2v-3a3 3 0 0 0 -3-3z"/><path d="m36 31h6v2h-6z"/><path d="m26 26v-2h-2v2a3 3 0 0 0 3 3h6v-2h-6a1 1 0 0 1 -1-1z"/><path d="m24 38v3h2v-3a1 1 0 0 1 1-1h4v-2h-4a3 3 0 0 0 -3 3z"/><path d="m24 31h6v2h-6z"/><path d="m33 21.382a3.975 3.975 0 0 0 -3-1.382v2a2 2 0 0 1 2 2v1h2v-1a2 2 0 0 1 2-2v-2a3.975 3.975 0 0 0 -3 1.382z"/><path d="m36 29v-2a2.006 2.006 0 0 0 -2-2 2.015 2.015 0 0 0 -2 2v2h-2v6a4 4 0 0 0 8 0v-6z"/><path d="m25 6h2v2h-2z"/><path d="m29 6h6v2h-6z"/></g><path d="m39 23v2a1 1 0 0 1 -1 1h-5v2h5a3 3 0 0 0 3-3v-2z" fill="#ffb655"/><path d="m38 34h-4v2h4a1 1 0 0 1 1 1v3h2v-3a3 3 0 0 0 -3-3z" fill="#ffb655"/><path d="m36 30h5v2h-5z" fill="#ffb655"/><path d="m25 25v-2h-2v2a3 3 0 0 0 3 3h5v-2h-5a1 1 0 0 1 -1-1z" fill="#ffb655"/><path d="m23 37v3h2v-3a1 1 0 0 1 1-1h4v-2h-4a3 3 0 0 0 -3 3z" fill="#ffb655"/><path d="m23 30h5v2h-5z" fill="#ffb655"/><path d="m32 20.382a3.975 3.975 0 0 0 -3-1.382v2a2 2 0 0 1 2 2v1h2v-1a2 2 0 0 1 2-2v-2a3.975 3.975 0 0 0 -3 1.382z" fill="#ed1c24"/><path d="m36 31v2a4 4 0 0 1 -4 4v-6l4-4z" fill="#ff6243"/><path d="m36 27-4 4-4-4h2 4z" fill="#e6e7e8"/><path d="m34 25v2h-4v-2a2.015 2.015 0 0 1 2-2 2.006 2.006 0 0 1 2 2z" fill="#ff9811"/><path d="m32 31v6a3.995 3.995 0 0 1 -4-4v-6z" fill="#ff5023"/></g></svg>