<svg height="512" viewBox="0 0 64 64" width="512" xmlns="http://www.w3.org/2000/svg"><g id="Virus-Smartphone-Bug-Malware-Security"><path d="m36 31v2a4 4 0 0 1 -4 4v-6l4-4z" fill="#bddbff"/><path d="m36 27-4 4-4-4h2 4z" fill="#bddbff"/><path d="m35.41 53.59a1.955 1.955 0 0 1 .59 1.41 2.006 2.006 0 0 1 -2 2h-4a2.015 2.015 0 0 1 -2-2 2.006 2.006 0 0 1 2-2h4a1.955 1.955 0 0 1 1.41.59z" fill="#bddbff"/><path d="m32 31v6a3.995 3.995 0 0 1 -4-4v-6z" fill="#bddbff"/><g fill="#3d9ae2"><path d="m46 2h-28a6 6 0 0 0 -6 6v48a6 6 0 0 0 6 6h28a6 6 0 0 0 6-6v-48a6 6 0 0 0 -6-6zm4 54a4 4 0 0 1 -4 4h-28a4 4 0 0 1 -4-4v-48a4 4 0 0 1 4-4h28a4 4 0 0 1 4 4z"/><path d="m34 52h-4a3 3 0 0 0 0 6h4a3 3 0 0 0 0-6zm0 4h-4a1 1 0 0 1 0-2h4a1 1 0 0 1 0 2z"/><path d="m25 6h2v2h-2z"/><path d="m29 6h6v2h-6z"/><path d="m38 28a3.009 3.009 0 0 0 3-3v-2h-2v2a1 1 0 0 1 -1 1h-3v-1a3 3 0 0 0 -1.85-2.77 2.02 2.02 0 0 1 1.85-1.23v-2a3.967 3.967 0 0 0 -3 1.38 3.967 3.967 0 0 0 -3-1.38v2a2.02 2.02 0 0 1 1.85 1.23 3 3 0 0 0 -1.85 2.77v1h-3a1 1 0 0 1 -1-1v-2h-2v2a3.009 3.009 0 0 0 3 3h1v2h-4v2h4v1a5.468 5.468 0 0 0 .1 1h-1.1a3.009 3.009 0 0 0 -3 3v3h2v-3a1 1 0 0 1 1-1h2v-.03a4.956 4.956 0 0 0 8 0v.03h2a1 1 0 0 1 1 1v3h2v-3a3.009 3.009 0 0 0 -3-3h-1.1a5.468 5.468 0 0 0 .1-1v-1h4v-2h-4v-2zm-7-3a1 1 0 0 1 2 0v1h-2zm0 10.82a3.01 3.01 0 0 1 -2-2.82v-3.59l2 2zm-.59-7.82h3.18l-1.59 1.59zm4.59 5a3.01 3.01 0 0 1 -2 2.82v-4.41l2-2z"/></g></g></svg>